<svg width="20" height="24" viewBox="0 0 20 24" fill="none" xmlns="http://www.w3.org/2000/svg">
<path d="M2.5382 11.5773C2.53706 10.7707 2.69718 9.97182 3.00933 9.2267C3.32149 8.48158 3.77953 7.80494 4.35705 7.23575C4.93457 6.66657 5.62018 6.21609 6.37437 5.91025C7.12857 5.60442 7.93645 5.44928 8.75148 5.45377C12.1546 5.47928 14.8788 8.27741 14.8788 11.6539V12.2577C14.8788 15.3025 15.5234 17.0715 16.0905 18.0411C16.1508 18.1443 16.1825 18.2615 16.1827 18.3807C16.1828 18.4999 16.1512 18.6171 16.0912 18.7204C16.0311 18.8238 15.9447 18.9097 15.8405 18.9696C15.7363 19.0295 15.6181 19.0613 15.4976 19.0617H1.91945C1.79898 19.0613 1.68073 19.0295 1.57655 18.9696C1.47238 18.9097 1.38593 18.8238 1.32588 18.7204C1.26582 18.6171 1.23427 18.4999 1.23438 18.3807C1.23448 18.2615 1.26625 18.1443 1.32648 18.0411C1.89367 17.0715 2.5382 15.3025 2.5382 12.2577V11.5773Z" stroke="#01023C" stroke-width="2" stroke-linecap="round" stroke-linejoin="round"/>
<path d="M5.95851 19.0616V19.742C5.95851 20.4638 6.24824 21.156 6.76397 21.6664C7.27969 22.1768 7.97917 22.4636 8.70851 22.4636C9.43786 22.4636 10.1373 22.1768 10.6531 21.6664C11.1688 21.156 11.4585 20.4638 11.4585 19.742V19.0616" stroke="#01023C" stroke-width="2" stroke-linecap="round" stroke-linejoin="round"/>
<ellipse cx="13.8431" cy="5.86985" rx="5.86503" ry="5.80442" fill="#EB1919"/>
<path d="M13.7374 9.26154V8.43754H11.3854V7.52554L12.4814 3.98954H13.8974L12.6254 7.38954H13.7374L13.8174 6.12554L14.9774 6.10154V7.38954H15.4014V8.43754H14.9774V9.26154H13.7374Z" fill="#F6F6FB"/>
</svg>
