<svg width="20" height="20" viewBox="0 0 20 20" fill="none" xmlns="http://www.w3.org/2000/svg">
<circle cx="10" cy="10" r="10" fill="#EB1919"/>
<path d="M10.5894 13.12C10.0761 13.12 9.63275 13.03 9.25941 12.85C8.89275 12.67 8.60275 12.4233 8.38941 12.11C8.18275 11.79 8.06275 11.43 8.02941 11.03H9.27941C9.33941 11.3167 9.48608 11.5567 9.71941 11.75C9.95275 11.9367 10.2427 12.03 10.5894 12.03C10.9627 12.03 11.2661 11.8933 11.4994 11.62C11.7394 11.3467 11.8594 11.0067 11.8594 10.6C11.8594 10.18 11.7394 9.84667 11.4994 9.6C11.2661 9.35333 10.9694 9.23 10.6094 9.23C10.3094 9.23 10.0494 9.30333 9.82941 9.45C9.60941 9.59667 9.45275 9.78 9.35941 10H8.12941L8.72941 6H12.6094V7.12H9.68941L9.36941 8.74C9.51608 8.58 9.71608 8.45 9.96941 8.35C10.2227 8.24333 10.5061 8.19 10.8194 8.19C11.3194 8.19 11.7361 8.30333 12.0694 8.53C12.4027 8.75 12.6561 9.04333 12.8294 9.41C13.0027 9.77 13.0894 10.1633 13.0894 10.59C13.0894 11.0767 12.9827 11.51 12.7694 11.89C12.5627 12.27 12.2694 12.57 11.8894 12.79C11.5161 13.01 11.0827 13.12 10.5894 13.12Z" fill="white"/>
</svg>
