<svg width="21" height="20" viewBox="0 0 21 20" fill="none" xmlns="http://www.w3.org/2000/svg">
<path d="M17.1939 6.32001H3.70128C3.36256 6.32001 3.08797 6.59459 3.08797 6.93331V9.38651C3.08797 9.72523 3.36256 9.99982 3.70128 9.99982H17.1939C17.5326 9.99982 17.8072 9.72523 17.8072 9.38651V6.93331C17.8072 6.59459 17.5326 6.32001 17.1939 6.32001Z" stroke="#28CB69" stroke-linecap="round" stroke-linejoin="round"/>
<path d="M16.5806 9.99982V15.5195C16.5806 15.6822 16.516 15.8382 16.401 15.9532C16.286 16.0682 16.13 16.1328 15.9673 16.1328H4.92788C4.76522 16.1328 4.60922 16.0682 4.49421 15.9532C4.37919 15.8382 4.31458 15.6822 4.31458 15.5195V9.99982" stroke="#28CB69" stroke-linecap="round" stroke-linejoin="round"/>
<path d="M10.4476 6.32001V16.1328" stroke="#28CB69" stroke-linecap="round" stroke-linejoin="round"/>
<path d="M13.9204 5.45386C13.0465 6.32014 10.4476 6.32015 10.4476 6.32015C10.4476 6.32015 10.4476 3.72128 11.3139 2.84733C11.6595 2.50168 12.1283 2.3075 12.6171 2.3075C13.106 2.3075 13.5748 2.50168 13.9204 2.84733C14.2661 3.19297 14.4602 3.66177 14.4602 4.15059C14.4602 4.63941 14.2661 5.10821 13.9204 5.45386V5.45386Z" stroke="#28CB69" stroke-linecap="round" stroke-linejoin="round"/>
<path d="M6.97461 5.45386C7.84856 6.32014 10.4474 6.32015 10.4474 6.32015C10.4474 6.32015 10.4474 3.72128 9.58114 2.84733C9.23549 2.50168 8.76669 2.3075 8.27787 2.3075C7.78905 2.3075 7.32025 2.50168 6.97461 2.84733C6.62896 3.19297 6.43478 3.66177 6.43478 4.15059C6.43478 4.63941 6.62896 5.10821 6.97461 5.45386V5.45386Z" stroke="#28CB69" stroke-linecap="round" stroke-linejoin="round"/>
</svg>
