<svg width="30" height="10" viewBox="0 0 30 10" fill="none" xmlns="http://www.w3.org/2000/svg">
<path d="M19.5355 0.0153961C17.4076 0.0153961 15.5059 1.14776 15.5059 3.23988C15.5059 5.63915 18.8786 5.80486 18.8786 7.01019C18.8786 7.5177 18.3121 7.972 17.3445 7.972C15.9713 7.972 14.945 7.3372 14.945 7.3372L14.5058 9.44839C14.5058 9.44839 15.6881 9.9846 17.2578 9.9846C19.5844 9.9846 21.4151 8.79664 21.4151 6.66874C21.4151 4.13348 18.0284 3.97269 18.0284 2.85395C18.0284 2.45639 18.4934 2.02078 19.4583 2.02078C20.5469 2.02078 21.435 2.48245 21.435 2.48245L21.8648 0.443403C21.8648 0.443403 20.8984 0.0153961 19.5355 0.0153961ZM0.0665264 0.169287L0.0149994 0.477067C0.0149994 0.477067 0.910247 0.645277 1.71656 0.980817C2.75476 1.36558 2.82872 1.58957 3.00357 2.28528L4.9089 9.8259H7.463L11.3978 0.169287H8.84954L6.3212 6.73487L5.28949 1.16957C5.19488 0.532629 4.71561 0.169287 4.12896 0.169287H0.0665264ZM12.4225 0.169287L10.4235 9.8259H12.8534L14.8454 0.169287H12.4225ZM25.9753 0.169287C25.3893 0.169287 25.0788 0.491353 24.851 1.05416L21.291 9.8259H23.8392L24.3322 8.36394H27.4367L27.7365 9.8259H29.985L28.0235 0.169287H25.9753ZM26.3067 2.77821L27.062 6.40184H25.0384L26.3067 2.77821Z" fill="url(#paint0_linear_0_95)"/>
<defs>
<linearGradient id="paint0_linear_0_95" x1="0.00381603" y1="3.42197" x2="29.9869" y2="3.42197" gradientUnits="userSpaceOnUse">
<stop stop-color="#20225F"/>
<stop offset="0.2" stop-color="#1A1F61"/>
<stop offset="0.410233" stop-color="#172272"/>
<stop offset="0.595197" stop-color="#152682"/>
<stop offset="0.802083" stop-color="#12288E"/>
<stop offset="1" stop-color="#0E2C9A"/>
</linearGradient>
</defs>
</svg>
